<svg xmlns="http://www.w3.org/2000/svg" width="375" viewBox="0 0 375 375" height="375" version="1.0"><path fill="#FFF" d="M-37.5 -37.5H412.5V412.5H-37.5z"/><path fill="#FFF" d="M-37.5 -37.5H412.5V412.5H-37.5z"/><g fill="#0821C8"><g><g><path d="M 60.125 -15.578125 C 60.320312 -15.535156 60.476562 -15.453125 60.59375 -15.328125 C 60.707031 -15.210938 60.734375 -15.097656 60.671875 -14.984375 C 60.597656 -14.867188 60.515625 -14.796875 60.421875 -14.765625 C 60.335938 -14.742188 60.238281 -14.742188 60.125 -14.765625 C 60 -14.765625 59.863281 -14.773438 59.71875 -14.796875 C 57.757812 -14.847656 55.160156 -14.734375 51.921875 -14.453125 C 48.679688 -14.171875 46.078125 -13.890625 44.109375 -13.609375 C 42.578125 -13.410156 41.050781 -13.195312 39.53125 -12.96875 C 39.488281 -12.96875 39.441406 -12.957031 39.390625 -12.9375 C 38.753906 -12.84375 38.171875 -12.609375 37.640625 -12.234375 C 35.703125 -10.910156 33.695312 -9.710938 31.625 -8.640625 C 29.5625 -7.566406 27.453125 -6.570312 25.296875 -5.65625 C 21.816406 -4.113281 18.253906 -2.769531 14.609375 -1.625 C 13.867188 -1.425781 13.320312 -0.972656 12.96875 -0.265625 C 11.351562 2.960938 9.671875 6.117188 7.921875 9.203125 C 6.359375 11.941406 4.859375 14.71875 3.421875 17.53125 C 3.421875 17.550781 3.414062 17.570312 3.40625 17.59375 C 3.34375 17.738281 3.265625 17.851562 3.171875 17.9375 C 3.023438 18.0625 2.851562 18.109375 2.65625 18.078125 C 2.550781 18.109375 2.445312 18.109375 2.34375 18.078125 C 2.113281 17.984375 2 17.820312 2 17.59375 C 2.03125 17.195312 2.160156 16.820312 2.390625 16.46875 C 2.398438 16.457031 2.40625 16.4375 2.40625 16.40625 C 3.863281 13.800781 5.296875 11.195312 6.703125 8.59375 C 8.109375 5.988281 9.460938 3.347656 10.765625 0.671875 C 10.878906 0.441406 10.988281 0.210938 11.09375 -0.015625 C 11.132812 -0.128906 11.179688 -0.25 11.234375 -0.375 C 11.109375 -0.40625 10.992188 -0.429688 10.890625 -0.453125 C 10.679688 -0.410156 10.476562 -0.351562 10.28125 -0.28125 C 10.207031 -0.269531 10.132812 -0.242188 10.0625 -0.203125 C 7.53125 0.515625 4.960938 1.128906 2.359375 1.640625 C 0.566406 1.960938 -1.238281 2.191406 -3.0625 2.328125 C -3.144531 2.335938 -3.222656 2.34375 -3.296875 2.34375 C -3.484375 2.363281 -3.664062 2.375 -3.84375 2.375 C -4.539062 2.375 -5.222656 2.265625 -5.890625 2.046875 C -6.390625 1.867188 -6.6875 1.582031 -6.78125 1.1875 C -6.882812 0.800781 -6.769531 0.378906 -6.4375 -0.078125 C -5.976562 -0.597656 -5.441406 -1.03125 -4.828125 -1.375 C -3.421875 -2.25 -1.945312 -2.96875 -0.40625 -3.53125 C 3.707031 -5.082031 7.878906 -6.445312 12.109375 -7.625 C 12.335938 -7.695312 12.582031 -7.765625 12.84375 -7.828125 C 13.382812 -7.929688 13.890625 -8.085938 14.359375 -8.296875 C 14.828125 -8.515625 15.179688 -8.882812 15.421875 -9.40625 C 16.304688 -11.457031 17.160156 -13.507812 17.984375 -15.5625 C 18.816406 -17.625 19.585938 -19.71875 20.296875 -21.84375 C 20.296875 -21.851562 20.300781 -21.878906 20.3125 -21.921875 C 20.425781 -22.304688 20.570312 -22.664062 20.75 -23 C 20.820312 -23.113281 20.914062 -23.191406 21.03125 -23.234375 C 21.15625 -23.285156 21.28125 -23.300781 21.40625 -23.28125 C 21.5 -23.300781 21.597656 -23.300781 21.703125 -23.28125 C 21.972656 -23.207031 22.128906 -23.023438 22.171875 -22.734375 C 22.171875 -22.171875 22.066406 -21.625 21.859375 -21.09375 C 21.859375 -21.082031 21.851562 -21.0625 21.84375 -21.03125 C 20.945312 -18.300781 19.945312 -15.625 18.84375 -13 C 18.5625 -12.269531 18.265625 -11.550781 17.953125 -10.84375 C 17.835938 -10.59375 17.726562 -10.328125 17.625 -10.046875 C 17.476562 -9.734375 17.414062 -9.515625 17.4375 -9.390625 C 17.46875 -9.273438 17.554688 -9.21875 17.703125 -9.21875 C 17.847656 -9.226562 18.023438 -9.269531 18.234375 -9.34375 C 18.296875 -9.363281 18.363281 -9.382812 18.4375 -9.40625 C 19.238281 -9.601562 20.039062 -9.800781 20.84375 -10 C 22.289062 -10.363281 23.75 -10.726562 25.21875 -11.09375 C 28.8125 -11.945312 32.429688 -12.671875 36.078125 -13.265625 C 36.722656 -13.378906 37.289062 -13.632812 37.78125 -14.03125 C 38.820312 -14.8125 39.847656 -15.726562 40.859375 -16.78125 C 41.867188 -17.84375 42.707031 -18.984375 43.375 -20.203125 C 44.039062 -21.429688 44.335938 -22.691406 44.265625 -23.984375 C 44.203125 -25.273438 43.613281 -26.554688 42.5 -27.828125 C 41.769531 -28.585938 40.941406 -29.222656 40.015625 -29.734375 C 38.078125 -30.773438 35.742188 -31.539062 33.015625 -32.03125 C 30.285156 -32.519531 27.359375 -32.78125 24.234375 -32.8125 C 21.109375 -32.84375 17.984375 -32.6875 14.859375 -32.34375 C 11.734375 -32 8.804688 -31.519531 6.078125 -30.90625 C 3.347656 -30.289062 1.003906 -29.585938 -0.953125 -28.796875 C -2.640625 -28.128906 -4.25 -27.304688 -5.78125 -26.328125 C -6.394531 -25.953125 -6.972656 -25.535156 -7.515625 -25.078125 C -8.054688 -24.628906 -8.546875 -24.109375 -8.984375 -23.515625 C -9.140625 -23.265625 -9.359375 -23.128906 -9.640625 -23.109375 C -9.691406 -23.109375 -9.753906 -23.109375 -9.828125 -23.109375 C -9.847656 -23.109375 -9.863281 -23.109375 -9.875 -23.109375 C -9.988281 -23.109375 -10.09375 -23.125 -10.1875 -23.15625 C -10.289062 -23.1875 -10.367188 -23.25 -10.421875 -23.34375 C -10.453125 -23.414062 -10.46875 -23.488281 -10.46875 -23.5625 C -10.46875 -23.644531 -10.460938 -23.710938 -10.453125 -23.765625 C -10.304688 -24.097656 -10.113281 -24.390625 -9.875 -24.640625 C -9.632812 -24.890625 -9.394531 -25.132812 -9.15625 -25.375 C -8.488281 -25.9375 -7.796875 -26.441406 -7.078125 -26.890625 C -6.367188 -27.347656 -5.640625 -27.773438 -4.890625 -28.171875 C -2.972656 -29.191406 -0.519531 -30.109375 2.46875 -30.921875 C 5.46875 -31.742188 8.753906 -32.40625 12.328125 -32.90625 C 15.910156 -33.40625 19.519531 -33.675781 23.15625 -33.71875 C 26.800781 -33.757812 30.207031 -33.515625 33.375 -32.984375 C 36.550781 -32.460938 39.253906 -31.582031 41.484375 -30.34375 C 42.484375 -29.800781 43.378906 -29.109375 44.171875 -28.265625 C 45.285156 -27.003906 45.914062 -25.757812 46.0625 -24.53125 C 46.21875 -23.3125 46.050781 -22.125 45.5625 -20.96875 C 45.070312 -19.820312 44.394531 -18.726562 43.53125 -17.6875 C 42.675781 -16.644531 41.796875 -15.671875 40.890625 -14.765625 C 40.773438 -14.671875 40.664062 -14.554688 40.5625 -14.421875 C 40.457031 -14.285156 40.410156 -14.171875 40.421875 -14.078125 C 40.441406 -13.992188 40.582031 -13.96875 40.84375 -14 C 43.882812 -14.488281 46.914062 -14.859375 49.9375 -15.109375 C 52.96875 -15.367188 56.019531 -15.539062 59.09375 -15.625 C 59.1875 -15.625 59.269531 -15.625 59.34375 -15.625 L 59.359375 -15.625 C 59.617188 -15.625 59.875 -15.609375 60.125 -15.578125 Z M 12.25 -2.390625 C 12.3125 -2.554688 12.429688 -2.789062 12.609375 -3.09375 C 12.867188 -3.582031 13.140625 -4.117188 13.421875 -4.703125 C 13.703125 -5.296875 13.90625 -5.8125 14.03125 -6.25 C 14.15625 -6.695312 14.09375 -6.941406 13.84375 -6.984375 C 13.6875 -6.960938 13.53125 -6.925781 13.375 -6.875 C 13.34375 -6.875 13.300781 -6.863281 13.25 -6.84375 C 12.664062 -6.664062 12.082031 -6.492188 11.5 -6.328125 C 10.101562 -5.921875 8.707031 -5.492188 7.3125 -5.046875 C 7.238281 -5.023438 7.164062 -5 7.09375 -4.96875 C 4.59375 -4.207031 2.125 -3.328125 -0.3125 -2.328125 C -1.539062 -1.828125 -2.707031 -1.210938 -3.8125 -0.484375 C -4.226562 -0.242188 -4.570312 0.0703125 -4.84375 0.46875 C -4.957031 0.632812 -4.988281 0.785156 -4.9375 0.921875 C -4.894531 1.054688 -4.78125 1.160156 -4.59375 1.234375 C -4.21875 1.359375 -3.832031 1.421875 -3.4375 1.421875 C -3.09375 1.421875 -2.75 1.40625 -2.40625 1.375 C -2.382812 1.375 -2.375 1.375 -2.375 1.375 C -0.570312 1.1875 1.195312 0.894531 2.9375 0.5 C 5.695312 -0.113281 8.425781 -0.828125 11.125 -1.640625 C 11.164062 -1.671875 11.191406 -1.6875 11.203125 -1.6875 C 11.421875 -1.726562 11.617188 -1.796875 11.796875 -1.890625 C 11.984375 -1.992188 12.132812 -2.160156 12.25 -2.390625 Z M 14.5625 -2.875 C 16.1875 -3.289062 18.40625 -4.070312 21.21875 -5.21875 C 24.03125 -6.375 26.734375 -7.59375 29.328125 -8.875 C 31.921875 -10.15625 33.6875 -11.210938 34.625 -12.046875 C 34.5 -12.046875 34.394531 -12.046875 34.3125 -12.046875 C 34.269531 -12.046875 34.238281 -12.046875 34.21875 -12.046875 C 28.519531 -10.910156 22.878906 -9.566406 17.296875 -8.015625 C 16.804688 -7.867188 16.46875 -7.570312 16.28125 -7.125 C 15.945312 -6.394531 15.613281 -5.675781 15.28125 -4.96875 C 15.03125 -4.445312 14.773438 -3.910156 14.515625 -3.359375 C 14.484375 -3.285156 14.460938 -3.203125 14.453125 -3.109375 C 14.441406 -3.023438 14.476562 -2.945312 14.5625 -2.875 Z M 14.5625 -2.875" transform="translate(21.613 202.066)"/></g></g></g><g fill="#0821C8"><g><g><path d="M 7.046875 -4.75 C 6.566406 -4.28125 6.007812 -3.878906 5.375 -3.546875 C 4.738281 -3.210938 4.207031 -2.992188 3.78125 -2.890625 C 3.351562 -2.785156 2.914062 -2.722656 2.46875 -2.703125 C 1.738281 -2.671875 1.066406 -2.769531 0.453125 -3 C -0.535156 -3.40625 -0.878906 -4.175781 -0.578125 -5.3125 C -0.285156 -6.300781 0.296875 -7.070312 1.171875 -7.625 C 2.054688 -8.175781 2.96875 -8.441406 3.90625 -8.421875 C 3.90625 -8.421875 3.914062 -8.421875 3.9375 -8.421875 C 4.175781 -8.441406 4.398438 -8.425781 4.609375 -8.375 C 4.972656 -8.238281 5.203125 -8.019531 5.296875 -7.71875 C 5.398438 -7.425781 5.335938 -7.097656 5.109375 -6.734375 C 4.578125 -5.941406 3.859375 -5.5 2.953125 -5.40625 C 2.347656 -5.34375 1.769531 -5.367188 1.21875 -5.484375 C 1.101562 -5.503906 1.003906 -5.476562 0.921875 -5.40625 C 0.835938 -5.332031 0.789062 -5.238281 0.78125 -5.125 C 0.613281 -4.414062 0.832031 -3.960938 1.4375 -3.765625 C 2.175781 -3.515625 2.945312 -3.515625 3.75 -3.765625 C 4.664062 -4.054688 5.539062 -4.601562 6.375 -5.40625 C 7.207031 -6.207031 7.6875 -6.578125 7.8125 -6.515625 C 7.945312 -6.460938 7.988281 -6.3125 7.9375 -6.0625 C 7.820312 -5.65625 7.523438 -5.21875 7.046875 -4.75 Z M 1.78125 -6.734375 C 1.726562 -6.679688 1.691406 -6.617188 1.671875 -6.546875 C 1.648438 -6.472656 1.675781 -6.410156 1.75 -6.359375 C 2.039062 -6.191406 2.351562 -6.128906 2.6875 -6.171875 C 3.03125 -6.222656 3.316406 -6.351562 3.546875 -6.5625 C 3.785156 -6.769531 3.890625 -7.023438 3.859375 -7.328125 C 3.835938 -7.441406 3.78125 -7.507812 3.6875 -7.53125 C 3.59375 -7.5625 3.5 -7.570312 3.40625 -7.5625 C 2.800781 -7.445312 2.257812 -7.171875 1.78125 -6.734375 Z M 1.78125 -6.734375" transform="translate(65.762 202.066)"/></g></g></g><g fill="#0821C8"><g><g><path d="M 6.328125 -19.640625 C 6.367188 -19.703125 6.457031 -19.753906 6.59375 -19.796875 C 6.726562 -19.847656 6.867188 -19.882812 7.015625 -19.90625 C 7.160156 -19.925781 7.285156 -19.921875 7.390625 -19.890625 C 7.503906 -19.859375 7.550781 -19.804688 7.53125 -19.734375 C 7.4375 -19.359375 7.300781 -18.988281 7.125 -18.625 C 7.101562 -18.570312 7.070312 -18.507812 7.03125 -18.4375 C 6.351562 -16.851562 5.660156 -15.285156 4.953125 -13.734375 C 4.835938 -13.492188 4.738281 -13.265625 4.65625 -13.046875 C 4.394531 -12.515625 4.078125 -11.875 3.703125 -11.125 C 3.273438 -10.320312 2.910156 -9.585938 2.609375 -8.921875 C 2.898438 -9.265625 3.265625 -9.515625 3.703125 -9.671875 C 4.140625 -9.835938 4.472656 -9.921875 4.703125 -9.921875 C 5.578125 -9.898438 6.054688 -9.46875 6.140625 -8.625 C 6.285156 -7.65625 6.113281 -6.671875 5.625 -5.671875 C 5.132812 -4.679688 4.492188 -3.867188 3.703125 -3.234375 C 3.023438 -2.847656 2.378906 -2.675781 1.765625 -2.71875 C 1.160156 -2.769531 0.625 -3.066406 0.15625 -3.609375 C 0.101562 -3.609375 0.046875 -3.582031 -0.015625 -3.53125 C -0.078125 -3.476562 -0.144531 -3.414062 -0.21875 -3.34375 C -0.3125 -3.226562 -0.410156 -3.144531 -0.515625 -3.09375 C -0.585938 -3.0625 -0.664062 -3.050781 -0.75 -3.0625 C -0.832031 -3.082031 -0.898438 -3.109375 -0.953125 -3.140625 C -1.128906 -3.285156 -1.1875 -3.46875 -1.125 -3.6875 C -0.4375 -5.5 0.375 -7.382812 1.3125 -9.34375 C 2.25 -11.3125 3.1875 -13.226562 4.125 -15.09375 C 4.519531 -15.925781 4.914062 -16.734375 5.3125 -17.515625 C 5.46875 -17.816406 5.617188 -18.132812 5.765625 -18.46875 C 5.941406 -18.84375 6.128906 -19.234375 6.328125 -19.640625 Z M 3.234375 -8.421875 C 2.597656 -7.960938 2.046875 -7.40625 1.578125 -6.75 C 1.117188 -6.101562 0.957031 -5.421875 1.09375 -4.703125 C 1.15625 -4.273438 1.320312 -3.972656 1.59375 -3.796875 C 1.863281 -3.628906 2.179688 -3.695312 2.546875 -4 C 2.910156 -4.332031 3.273438 -4.753906 3.640625 -5.265625 C 4.003906 -5.773438 4.296875 -6.320312 4.515625 -6.90625 C 4.691406 -7.414062 4.796875 -7.859375 4.828125 -8.234375 C 4.867188 -8.617188 4.769531 -8.847656 4.53125 -8.921875 C 4.300781 -9.003906 3.867188 -8.835938 3.234375 -8.421875 Z M 3.234375 -8.421875" transform="translate(82.435 202.066)"/></g></g></g><g fill="#0821C8"><g><g><path d="M 6.328125 -19.640625 C 6.367188 -19.703125 6.457031 -19.753906 6.59375 -19.796875 C 6.726562 -19.847656 6.867188 -19.882812 7.015625 -19.90625 C 7.160156 -19.925781 7.285156 -19.921875 7.390625 -19.890625 C 7.503906 -19.859375 7.550781 -19.804688 7.53125 -19.734375 C 7.4375 -19.359375 7.300781 -18.988281 7.125 -18.625 C 7.101562 -18.570312 7.070312 -18.507812 7.03125 -18.4375 C 6.351562 -16.851562 5.660156 -15.285156 4.953125 -13.734375 C 4.835938 -13.492188 4.738281 -13.265625 4.65625 -13.046875 C 4.394531 -12.515625 4.078125 -11.875 3.703125 -11.125 C 3.273438 -10.320312 2.910156 -9.585938 2.609375 -8.921875 C 2.898438 -9.265625 3.265625 -9.515625 3.703125 -9.671875 C 4.140625 -9.835938 4.472656 -9.921875 4.703125 -9.921875 C 5.578125 -9.898438 6.054688 -9.46875 6.140625 -8.625 C 6.285156 -7.65625 6.113281 -6.671875 5.625 -5.671875 C 5.132812 -4.679688 4.492188 -3.867188 3.703125 -3.234375 C 3.023438 -2.847656 2.378906 -2.675781 1.765625 -2.71875 C 1.160156 -2.769531 0.625 -3.066406 0.15625 -3.609375 C 0.101562 -3.609375 0.046875 -3.582031 -0.015625 -3.53125 C -0.078125 -3.476562 -0.144531 -3.414062 -0.21875 -3.34375 C -0.3125 -3.226562 -0.410156 -3.144531 -0.515625 -3.09375 C -0.585938 -3.0625 -0.664062 -3.050781 -0.75 -3.0625 C -0.832031 -3.082031 -0.898438 -3.109375 -0.953125 -3.140625 C -1.128906 -3.285156 -1.1875 -3.46875 -1.125 -3.6875 C -0.4375 -5.5 0.375 -7.382812 1.3125 -9.34375 C 2.25 -11.3125 3.1875 -13.226562 4.125 -15.09375 C 4.519531 -15.925781 4.914062 -16.734375 5.3125 -17.515625 C 5.46875 -17.816406 5.617188 -18.132812 5.765625 -18.46875 C 5.941406 -18.84375 6.128906 -19.234375 6.328125 -19.640625 Z M 3.234375 -8.421875 C 2.597656 -7.960938 2.046875 -7.40625 1.578125 -6.75 C 1.117188 -6.101562 0.957031 -5.421875 1.09375 -4.703125 C 1.15625 -4.273438 1.320312 -3.972656 1.59375 -3.796875 C 1.863281 -3.628906 2.179688 -3.695312 2.546875 -4 C 2.910156 -4.332031 3.273438 -4.753906 3.640625 -5.265625 C 4.003906 -5.773438 4.296875 -6.320312 4.515625 -6.90625 C 4.691406 -7.414062 4.796875 -7.859375 4.828125 -8.234375 C 4.867188 -8.617188 4.769531 -8.847656 4.53125 -8.921875 C 4.300781 -9.003906 3.867188 -8.835938 3.234375 -8.421875 Z M 3.234375 -8.421875" transform="translate(98.762 202.066)"/></g></g></g><g fill="#0821C8"><g><g><path d="M 5.984375 -5.90625 C 6.253906 -6.175781 6.476562 -6.328125 6.65625 -6.359375 C 6.84375 -6.390625 6.960938 -6.359375 7.015625 -6.265625 C 7.066406 -6.179688 7.03125 -6.0625 6.90625 -5.90625 C 6.1875 -5.03125 5.375 -4.273438 4.46875 -3.640625 C 3.570312 -3.003906 2.644531 -2.632812 1.6875 -2.53125 C 0.738281 -2.4375 0.164062 -2.957031 -0.03125 -4.09375 C -0.175781 -5.21875 0.503906 -7.515625 2.015625 -10.984375 C 3.535156 -14.460938 4.738281 -17.3125 5.625 -19.53125 C 5.695312 -19.726562 5.8125 -19.898438 5.96875 -20.046875 C 6.164062 -20.242188 6.398438 -20.289062 6.671875 -20.1875 C 6.753906 -20.144531 6.84375 -20.078125 6.9375 -19.984375 C 7.03125 -19.890625 7.0625 -19.726562 7.03125 -19.5 C 3.125 -10.25 1.234375 -5.21875 1.359375 -4.40625 C 1.484375 -3.601562 2.003906 -3.40625 2.921875 -3.8125 C 3.835938 -4.21875 4.546875 -4.632812 5.046875 -5.0625 C 5.546875 -5.488281 5.859375 -5.769531 5.984375 -5.90625 Z M 5.984375 -5.90625" transform="translate(115.088 202.066)"/></g></g></g><g fill="#0821C8"><g><g><path d="M 7.046875 -4.75 C 6.566406 -4.28125 6.007812 -3.878906 5.375 -3.546875 C 4.738281 -3.210938 4.207031 -2.992188 3.78125 -2.890625 C 3.351562 -2.785156 2.914062 -2.722656 2.46875 -2.703125 C 1.738281 -2.671875 1.066406 -2.769531 0.453125 -3 C -0.535156 -3.40625 -0.878906 -4.175781 -0.578125 -5.3125 C -0.285156 -6.300781 0.296875 -7.070312 1.171875 -7.625 C 2.054688 -8.175781 2.96875 -8.441406 3.90625 -8.421875 C 3.90625 -8.421875 3.914062 -8.421875 3.9375 -8.421875 C 4.175781 -8.441406 4.398438 -8.425781 4.609375 -8.375 C 4.972656 -8.238281 5.203125 -8.019531 5.296875 -7.71875 C 5.398438 -7.425781 5.335938 -7.097656 5.109375 -6.734375 C 4.578125 -5.941406 3.859375 -5.5 2.953125 -5.40625 C 2.347656 -5.34375 1.769531 -5.367188 1.21875 -5.484375 C 1.101562 -5.503906 1.003906 -5.476562 0.921875 -5.40625 C 0.835938 -5.332031 0.789062 -5.238281 0.78125 -5.125 C 0.613281 -4.414062 0.832031 -3.960938 1.4375 -3.765625 C 2.175781 -3.515625 2.945312 -3.515625 3.75 -3.765625 C 4.664062 -4.054688 5.539062 -4.601562 6.375 -5.40625 C 7.207031 -6.207031 7.6875 -6.578125 7.8125 -6.515625 C 7.945312 -6.460938 7.988281 -6.3125 7.9375 -6.0625 C 7.820312 -5.65625 7.523438 -5.21875 7.046875 -4.75 Z M 1.78125 -6.734375 C 1.726562 -6.679688 1.691406 -6.617188 1.671875 -6.546875 C 1.648438 -6.472656 1.675781 -6.410156 1.75 -6.359375 C 2.039062 -6.191406 2.351562 -6.128906 2.6875 -6.171875 C 3.03125 -6.222656 3.316406 -6.351562 3.546875 -6.5625 C 3.785156 -6.769531 3.890625 -7.023438 3.859375 -7.328125 C 3.835938 -7.441406 3.78125 -7.507812 3.6875 -7.53125 C 3.59375 -7.5625 3.5 -7.570312 3.40625 -7.5625 C 2.800781 -7.445312 2.257812 -7.171875 1.78125 -6.734375 Z M 1.78125 -6.734375" transform="translate(130.735 202.066)"/></g></g></g><g fill="#0821C8"><g><g><path d="M 5.984375 -6.265625 C 4.679688 -5.785156 3.742188 -5.390625 3.171875 -5.078125 C 2.742188 -4.878906 2.5 -4.707031 2.4375 -4.5625 C 2.375 -4.425781 2.421875 -4.179688 2.578125 -3.828125 C 2.578125 -3.804688 2.59375 -3.78125 2.625 -3.75 C 2.800781 -3.3125 2.90625 -2.859375 2.9375 -2.390625 C 3 -1.441406 2.191406 -0.773438 0.515625 -0.390625 C -1.148438 -0.015625 -2.265625 -0.00390625 -2.828125 -0.359375 C -3.390625 -0.710938 -3.5625 -1.160156 -3.34375 -1.703125 C -3.125 -2.242188 -2.554688 -2.796875 -1.640625 -3.359375 C -0.722656 -3.921875 -0.113281 -4.328125 0.1875 -4.578125 C 0.5 -4.828125 0.59375 -5.101562 0.46875 -5.40625 C 0.425781 -5.507812 0.378906 -5.613281 0.328125 -5.71875 C 0.222656 -5.976562 0.113281 -6.242188 0 -6.515625 C -0.21875 -7.015625 -0.3125 -7.5 -0.28125 -7.96875 C -0.25 -8.445312 -0.0703125 -8.847656 0.25 -9.171875 C 0.570312 -9.503906 1.078125 -9.679688 1.765625 -9.703125 C 2.148438 -9.722656 2.492188 -9.671875 2.796875 -9.546875 C 3.109375 -9.429688 3.351562 -9.210938 3.53125 -8.890625 C 3.6875 -8.671875 3.644531 -8.46875 3.40625 -8.28125 C 3.25 -8.15625 3.078125 -8.140625 2.890625 -8.234375 C 2.773438 -8.285156 2.664062 -8.359375 2.5625 -8.453125 C 2.5625 -8.472656 2.5625 -8.484375 2.5625 -8.484375 C 2.507812 -8.515625 2.460938 -8.546875 2.421875 -8.578125 C 2.367188 -8.648438 2.316406 -8.707031 2.265625 -8.75 C 2.046875 -8.90625 1.828125 -8.953125 1.609375 -8.890625 C 1.390625 -8.835938 1.226562 -8.671875 1.125 -8.390625 C 1.050781 -8.179688 1.015625 -7.960938 1.015625 -7.734375 C 1.023438 -7.460938 1.085938 -7.203125 1.203125 -6.953125 C 1.273438 -6.796875 1.335938 -6.648438 1.390625 -6.515625 C 1.535156 -6.148438 1.648438 -5.898438 1.734375 -5.765625 C 1.828125 -5.628906 1.9375 -5.570312 2.0625 -5.59375 C 2.195312 -5.613281 3.367188 -6.03125 5.578125 -6.84375 C 6.054688 -7.007812 6.191406 -6.816406 5.984375 -6.265625 Z M 0.625 -1.546875 C 1.207031 -1.742188 1.453125 -2.128906 1.359375 -2.703125 C 1.359375 -2.742188 1.347656 -2.789062 1.328125 -2.84375 C 1.296875 -3.15625 1.226562 -3.394531 1.125 -3.5625 C 1.03125 -3.738281 0.8125 -3.734375 0.46875 -3.546875 C -0.382812 -3.054688 -1.175781 -2.488281 -1.90625 -1.84375 C -1.957031 -1.78125 -2.003906 -1.726562 -2.046875 -1.6875 C -2.046875 -1.6875 -2.050781 -1.671875 -2.0625 -1.640625 C -2.113281 -1.578125 -2.125 -1.503906 -2.09375 -1.421875 C -2.0625 -1.335938 -1.988281 -1.296875 -1.875 -1.296875 C -1.019531 -1.160156 -0.1875 -1.242188 0.625 -1.546875 Z M 0.625 -1.546875" transform="translate(147.408 202.066)"/></g></g></g><g fill="#0821C8"><g><g><path d="M 63.890625 -35.6875 C 64.097656 -35.507812 64.289062 -35.304688 64.46875 -35.078125 C 64.644531 -34.847656 64.753906 -34.578125 64.796875 -34.265625 C 64.859375 -33.921875 64.738281 -33.660156 64.4375 -33.484375 C 64.25 -33.390625 64.066406 -33.375 63.890625 -33.4375 C 63.722656 -33.507812 63.601562 -33.644531 63.53125 -33.84375 C 63.332031 -34.382812 63.03125 -34.8125 62.625 -35.125 C 62.226562 -35.445312 61.796875 -35.726562 61.328125 -35.96875 C 60.285156 -36.507812 59.210938 -36.953125 58.109375 -37.296875 C 57.003906 -37.640625 55.894531 -37.9375 54.78125 -38.1875 C 52.90625 -38.582031 50.410156 -38.835938 47.296875 -38.953125 C 44.179688 -39.078125 40.710938 -39.035156 36.890625 -38.828125 C 33.078125 -38.617188 29.171875 -38.207031 25.171875 -37.59375 C 21.179688 -36.988281 17.359375 -36.15625 13.703125 -35.09375 C 10.046875 -34.039062 6.832031 -32.722656 4.0625 -31.140625 C 1.289062 -29.566406 -0.769531 -27.707031 -2.125 -25.5625 C -3.257812 -23.695312 -3.488281 -21.726562 -2.8125 -19.65625 C -2.3125 -18.238281 -1.601562 -16.953125 -0.6875 -15.796875 C 0.695312 -14.054688 2.222656 -12.457031 3.890625 -11 C 5.304688 -9.71875 6.726562 -8.429688 8.15625 -7.140625 C 9.550781 -5.910156 10.953125 -4.660156 12.359375 -3.390625 C 13.910156 -1.953125 15.441406 -0.5 16.953125 0.96875 C 17.097656 1.101562 17.242188 1.238281 17.390625 1.375 C 18.203125 2.132812 18.921875 2.972656 19.546875 3.890625 C 20.179688 4.953125 20.300781 5.769531 19.90625 6.34375 C 19.507812 6.925781 18.765625 7.320312 17.671875 7.53125 C 16.578125 7.738281 15.300781 7.800781 13.84375 7.71875 C 12.394531 7.644531 10.9375 7.460938 9.46875 7.171875 C 8 6.890625 6.691406 6.550781 5.546875 6.15625 C 4.398438 5.757812 3.59375 5.351562 3.125 4.9375 C 2.1875 4.0625 2.125 3.140625 2.9375 2.171875 C 3.820312 1.171875 4.898438 0.441406 6.171875 -0.015625 C 8.003906 -0.722656 9.863281 -0.78125 11.75 -0.1875 C 12.113281 -0.0507812 12.457031 0.117188 12.78125 0.328125 C 12.820312 0.347656 12.851562 0.367188 12.875 0.390625 C 12.96875 0.441406 13.03125 0.515625 13.0625 0.609375 C 13.09375 0.710938 13.078125 0.820312 13.015625 0.9375 C 12.859375 1.125 12.675781 1.175781 12.46875 1.09375 C 12.257812 1.019531 12.066406 0.929688 11.890625 0.828125 C 10.585938 0.179688 9.242188 0.046875 7.859375 0.421875 C 6.484375 0.796875 5.320312 1.546875 4.375 2.671875 C 3.96875 3.210938 3.945312 3.6875 4.3125 4.09375 C 4.6875 4.507812 5.253906 4.859375 6.015625 5.140625 C 6.773438 5.421875 7.539062 5.640625 8.3125 5.796875 C 9.082031 5.960938 9.660156 6.078125 10.046875 6.140625 C 10.117188 6.140625 10.171875 6.144531 10.203125 6.15625 C 10.273438 6.15625 10.363281 6.164062 10.46875 6.1875 C 10.957031 6.289062 11.625 6.398438 12.46875 6.515625 C 13.3125 6.640625 14.179688 6.722656 15.078125 6.765625 C 15.984375 6.816406 16.753906 6.757812 17.390625 6.59375 C 18.035156 6.425781 18.398438 6.109375 18.484375 5.640625 C 18.566406 5.171875 18.207031 4.472656 17.40625 3.546875 C 16.5625 2.566406 15.664062 1.613281 14.71875 0.6875 C 12.363281 -1.59375 9.941406 -3.804688 7.453125 -5.953125 C 6.566406 -6.742188 5.675781 -7.539062 4.78125 -8.34375 C 3.300781 -9.675781 1.84375 -11.046875 0.40625 -12.453125 C -0.914062 -13.742188 -2.085938 -15.160156 -3.109375 -16.703125 C -3.828125 -17.816406 -4.332031 -19.019531 -4.625 -20.3125 C -5.0625 -22.4375 -4.671875 -24.394531 -3.453125 -26.1875 C -2.117188 -28.207031 -0.179688 -29.988281 2.359375 -31.53125 C 4.898438 -33.082031 7.84375 -34.40625 11.1875 -35.5 C 14.539062 -36.601562 18.109375 -37.492188 21.890625 -38.171875 C 25.671875 -38.847656 29.492188 -39.328125 33.359375 -39.609375 C 37.222656 -39.898438 40.925781 -40 44.46875 -39.90625 C 48.019531 -39.8125 51.226562 -39.539062 54.09375 -39.09375 C 56.96875 -38.65625 59.328125 -38.046875 61.171875 -37.265625 C 62.140625 -36.878906 63.046875 -36.351562 63.890625 -35.6875 Z M 63.890625 -35.6875" transform="translate(181.187 202.066)"/></g></g></g><g fill="#0821C8"><g><g><path d="M 4.90625 -5.203125 C 4.46875 -4.679688 3.945312 -4.203125 3.34375 -3.765625 C 2.75 -3.328125 2.070312 -3.03125 1.3125 -2.875 C 0.550781 -2.726562 -0.0351562 -2.785156 -0.453125 -3.046875 C -0.878906 -3.316406 -0.960938 -3.90625 -0.703125 -4.8125 C -0.367188 -5.75 0.0820312 -6.644531 0.65625 -7.5 C 0.789062 -7.675781 0.976562 -7.800781 1.21875 -7.875 C 1.40625 -7.914062 1.566406 -7.882812 1.703125 -7.78125 C 1.835938 -7.675781 1.890625 -7.546875 1.859375 -7.390625 C 1.734375 -7.097656 1.59375 -6.800781 1.4375 -6.5 C 1.289062 -6.207031 1.195312 -6.015625 1.15625 -5.921875 C 0.863281 -5.390625 0.660156 -4.835938 0.546875 -4.265625 C 0.546875 -3.929688 0.984375 -3.910156 1.859375 -4.203125 C 2.742188 -4.492188 3.601562 -5.023438 4.4375 -5.796875 C 5.269531 -6.566406 5.664062 -6.789062 5.625 -6.46875 C 5.59375 -6.15625 5.351562 -5.734375 4.90625 -5.203125 Z M 2.765625 -9.34375 C 2.722656 -9.3125 2.632812 -9.273438 2.5 -9.234375 C 2.375 -9.191406 2.238281 -9.160156 2.09375 -9.140625 C 1.945312 -9.117188 1.832031 -9.140625 1.75 -9.203125 C 1.664062 -9.265625 1.664062 -9.394531 1.75 -9.59375 C 1.875 -9.9375 2.007812 -10.238281 2.15625 -10.5 C 2.300781 -10.757812 2.488281 -11.046875 2.71875 -11.359375 C 2.863281 -11.503906 3.023438 -11.582031 3.203125 -11.59375 C 3.378906 -11.601562 3.523438 -11.554688 3.640625 -11.453125 C 3.753906 -11.347656 3.785156 -11.207031 3.734375 -11.03125 C 3.554688 -10.375 3.234375 -9.8125 2.765625 -9.34375 Z M 2.765625 -9.34375" transform="translate(208.89 202.066)"/></g></g></g><g fill="#0821C8"><g><g><path d="M 10.921875 -6.625 C 10.984375 -6.644531 11.054688 -6.644531 11.140625 -6.625 C 11.222656 -6.613281 11.285156 -6.578125 11.328125 -6.515625 C 11.378906 -6.421875 11.375 -6.328125 11.3125 -6.234375 C 11.257812 -6.148438 11.179688 -6.082031 11.078125 -6.03125 C 10.335938 -5.664062 9.59375 -5.289062 8.84375 -4.90625 C 7.957031 -4.457031 7.070312 -4.003906 6.1875 -3.546875 C 6.050781 -3.492188 5.921875 -3.429688 5.796875 -3.359375 C 5.597656 -3.253906 5.398438 -3.15625 5.203125 -3.0625 C 4.753906 -2.84375 4.453125 -2.5 4.296875 -2.03125 C 3.898438 -0.90625 3.488281 0.207031 3.0625 1.3125 C 2.5 2.789062 1.796875 4.195312 0.953125 5.53125 C 0.484375 6.289062 -0.0820312 6.96875 -0.75 7.5625 C -1.550781 8.3125 -2.46875 8.785156 -3.5 8.984375 C -5.207031 9.335938 -6.851562 9.226562 -8.4375 8.65625 C -9.082031 8.425781 -9.640625 8.054688 -10.109375 7.546875 C -10.742188 6.859375 -10.773438 6.125 -10.203125 5.34375 C -9.941406 5.007812 -9.65625 4.703125 -9.34375 4.421875 C -8.644531 3.785156 -7.890625 3.210938 -7.078125 2.703125 C -4.148438 0.835938 -1.144531 -0.882812 1.9375 -2.46875 C 1.957031 -2.46875 1.96875 -2.46875 1.96875 -2.46875 C 2.289062 -2.625 2.609375 -2.796875 2.921875 -2.984375 C 2.972656 -3.023438 3.039062 -3.113281 3.125 -3.25 C 3.21875 -3.382812 3.285156 -3.519531 3.328125 -3.65625 C 3.378906 -3.789062 3.367188 -3.890625 3.296875 -3.953125 C 3.222656 -4.015625 3.050781 -3.984375 2.78125 -3.859375 C 2.675781 -3.816406 2.578125 -3.769531 2.484375 -3.71875 C 2.242188 -3.601562 2.003906 -3.5 1.765625 -3.40625 C 0.359375 -3.070312 -0.34375 -3.617188 -0.34375 -5.046875 C -0.3125 -5.898438 -0.0546875 -6.671875 0.421875 -7.359375 C 0.910156 -8.046875 1.53125 -8.585938 2.28125 -8.984375 C 3.03125 -9.378906 3.84375 -9.53125 4.71875 -9.4375 C 4.800781 -9.4375 4.890625 -9.425781 4.984375 -9.40625 C 5.222656 -9.363281 5.460938 -9.34375 5.703125 -9.34375 C 5.953125 -9.34375 6.203125 -9.398438 6.453125 -9.515625 C 6.722656 -9.617188 6.925781 -9.585938 7.0625 -9.421875 C 7.195312 -9.253906 7.222656 -9.03125 7.140625 -8.75 C 6.898438 -8.238281 6.664062 -7.722656 6.4375 -7.203125 C 6.269531 -6.878906 6.113281 -6.546875 5.96875 -6.203125 C 5.800781 -5.835938 5.640625 -5.460938 5.484375 -5.078125 C 5.253906 -4.585938 5.21875 -4.328125 5.375 -4.296875 C 5.53125 -4.273438 5.800781 -4.363281 6.1875 -4.5625 C 6.238281 -4.582031 6.289062 -4.597656 6.34375 -4.609375 C 7.039062 -4.941406 7.738281 -5.269531 8.4375 -5.59375 C 8.925781 -5.8125 9.414062 -6.035156 9.90625 -6.265625 C 10.238281 -6.421875 10.578125 -6.539062 10.921875 -6.625 Z M 2.125 0.015625 C 2.382812 -0.710938 2.492188 -1.1875 2.453125 -1.40625 C 2.421875 -1.632812 2.265625 -1.695312 1.984375 -1.59375 C 1.703125 -1.488281 1.332031 -1.289062 0.875 -1 C 0.582031 -0.820312 0.265625 -0.640625 -0.078125 -0.453125 C -2.160156 0.671875 -4.191406 1.878906 -6.171875 3.171875 C -7.046875 3.679688 -7.828125 4.296875 -8.515625 5.015625 C -9.234375 5.796875 -9.207031 6.488281 -8.4375 7.09375 C -7.976562 7.445312 -7.46875 7.695312 -6.90625 7.84375 C -6.351562 7.988281 -5.742188 8.0625 -5.078125 8.0625 C -4.296875 8.125 -3.570312 7.976562 -2.90625 7.625 C -2.238281 7.28125 -1.617188 6.765625 -1.046875 6.078125 C -0.710938 5.617188 -0.390625 5.144531 -0.078125 4.65625 C 0.828125 3.175781 1.5625 1.628906 2.125 0.015625 Z M 1.3125 -4.359375 C 1.519531 -4.273438 1.828125 -4.351562 2.234375 -4.59375 C 2.648438 -4.84375 3.070312 -5.179688 3.5 -5.609375 C 3.925781 -6.046875 4.265625 -6.488281 4.515625 -6.9375 C 4.765625 -7.394531 4.832031 -7.78125 4.71875 -8.09375 C 4.675781 -8.1875 4.617188 -8.269531 4.546875 -8.34375 C 4.421875 -8.5 4.273438 -8.570312 4.109375 -8.5625 C 3.953125 -8.5625 3.78125 -8.535156 3.59375 -8.484375 C 3 -8.242188 2.46875 -7.832031 2 -7.25 C 1.539062 -6.664062 1.234375 -6.085938 1.078125 -5.515625 C 0.929688 -4.953125 1.007812 -4.566406 1.3125 -4.359375 Z M 1.3125 -4.359375" transform="translate(223.189 202.066)"/></g></g></g><g fill="#0821C8"><g><g><path d="M 9.796875 -6.171875 C 9.929688 -6.003906 9.765625 -5.703125 9.296875 -5.265625 C 8.835938 -4.828125 8.347656 -4.457031 7.828125 -4.15625 C 7.304688 -3.863281 6.703125 -3.570312 6.015625 -3.28125 C 5.566406 -3.082031 5.085938 -3.015625 4.578125 -3.078125 C 4.066406 -3.140625 3.8125 -3.445312 3.8125 -4 C 3.8125 -4.550781 3.9375 -5.101562 4.1875 -5.65625 C 4.445312 -6.21875 4.503906 -6.503906 4.359375 -6.515625 C 4.210938 -6.535156 3.914062 -6.398438 3.46875 -6.109375 C 2.28125 -5.335938 1.179688 -4.453125 0.171875 -3.453125 C -0.0976562 -3.117188 -0.441406 -2.9375 -0.859375 -2.90625 C -1.078125 -2.90625 -1.242188 -2.972656 -1.359375 -3.109375 C -1.484375 -3.242188 -1.5 -3.390625 -1.40625 -3.546875 C -0.6875 -4.890625 0.046875 -6.21875 0.796875 -7.53125 C 0.953125 -7.800781 1.195312 -7.96875 1.53125 -8.03125 C 1.675781 -8.0625 1.804688 -8.019531 1.921875 -7.90625 C 2.046875 -7.789062 2.109375 -7.664062 2.109375 -7.53125 C 2.085938 -7.394531 2.03125 -7.238281 1.9375 -7.0625 C 1.894531 -6.957031 1.851562 -6.851562 1.8125 -6.75 C 1.78125 -6.65625 1.769531 -6.570312 1.78125 -6.5 C 1.800781 -6.4375 1.851562 -6.414062 1.9375 -6.4375 C 2.0625 -6.507812 2.1875 -6.582031 2.3125 -6.65625 C 2.625 -6.832031 2.925781 -7.003906 3.21875 -7.171875 C 3.46875 -7.316406 3.734375 -7.445312 4.015625 -7.5625 C 4.296875 -7.675781 4.585938 -7.753906 4.890625 -7.796875 C 5.390625 -7.835938 5.742188 -7.726562 5.953125 -7.46875 C 6.160156 -7.21875 6.179688 -6.863281 6.015625 -6.40625 C 5.859375 -5.988281 5.6875 -5.582031 5.5 -5.1875 C 5.28125 -4.800781 5.242188 -4.507812 5.390625 -4.3125 C 5.535156 -4.113281 6.222656 -4.34375 7.453125 -5 L 8.390625 -5.546875 C 9.265625 -6.097656 9.734375 -6.304688 9.796875 -6.171875 Z M 9.796875 -6.171875" transform="translate(243.225 202.066)"/></g></g></g><g fill="#0821C8"><g><g><path d="M 8.96875 -6.296875 C 9.164062 -6.191406 9.179688 -5.921875 9.015625 -5.484375 C 8.773438 -5.171875 8.519531 -4.878906 8.25 -4.609375 C 7.976562 -4.335938 7.679688 -4.097656 7.359375 -3.890625 C 7.335938 -3.890625 7.328125 -3.878906 7.328125 -3.859375 C 7.109375 -3.710938 6.878906 -3.582031 6.640625 -3.46875 C 4.671875 -2.757812 3.664062 -3.175781 3.625 -4.71875 C 2.820312 -4.03125 2.285156 -3.609375 2.015625 -3.453125 C 1.359375 -3.066406 0.65625 -2.894531 -0.09375 -2.9375 C -0.65625 -2.96875 -1.035156 -3.132812 -1.234375 -3.4375 C -1.441406 -3.75 -1.425781 -4.171875 -1.1875 -4.703125 C -0.820312 -5.535156 -0.304688 -6.273438 0.359375 -6.921875 C 1.140625 -7.648438 2.007812 -8.234375 2.96875 -8.671875 C 3.476562 -8.921875 4.015625 -9.019531 4.578125 -8.96875 C 5.140625 -8.9375 5.476562 -8.617188 5.59375 -8.015625 C 5.644531 -7.828125 5.597656 -7.664062 5.453125 -7.53125 C 5.273438 -7.363281 5.066406 -7.328125 4.828125 -7.421875 C 4.804688 -7.421875 4.78125 -7.421875 4.75 -7.421875 C 4.726562 -7.429688 4.707031 -7.445312 4.6875 -7.46875 C 4.445312 -7.800781 4.203125 -7.9375 3.953125 -7.875 C 3.710938 -7.820312 3.457031 -7.71875 3.1875 -7.5625 C 1.914062 -6.8125 0.972656 -5.773438 0.359375 -4.453125 C 0.328125 -4.390625 0.304688 -4.320312 0.296875 -4.25 C 0.285156 -4.1875 0.304688 -4.132812 0.359375 -4.09375 C 0.503906 -4.039062 0.664062 -4.050781 0.84375 -4.125 C 1.03125 -4.195312 1.210938 -4.300781 1.390625 -4.4375 C 1.578125 -4.570312 1.734375 -4.6875 1.859375 -4.78125 C 1.867188 -4.800781 1.875 -4.8125 1.875 -4.8125 C 2.476562 -5.3125 3.066406 -5.828125 3.640625 -6.359375 C 3.898438 -6.628906 4.21875 -6.78125 4.59375 -6.8125 C 5.144531 -6.8125 5.375 -6.566406 5.28125 -6.078125 C 5.226562 -5.898438 5.175781 -5.722656 5.125 -5.546875 C 4.90625 -4.753906 4.894531 -4.289062 5.09375 -4.15625 C 5.289062 -4.019531 5.59375 -4.019531 6 -4.15625 C 6.40625 -4.289062 6.8125 -4.550781 7.21875 -4.9375 C 7.632812 -5.320312 7.984375 -5.671875 8.265625 -5.984375 C 8.546875 -6.304688 8.78125 -6.410156 8.96875 -6.296875 Z M 8.96875 -6.296875" transform="translate(261.765 202.066)"/></g></g></g><g fill="#0821C8"><g><g><path d="M 7.734375 -5.96875 C 6.628906 -4.664062 5.546875 -3.707031 4.484375 -3.09375 C 3.421875 -2.476562 2.285156 -2.273438 1.078125 -2.484375 C -0.128906 -2.691406 -0.625 -3.5 -0.40625 -4.90625 C -0.257812 -5.613281 -0.0546875 -6.304688 0.203125 -6.984375 C 0.835938 -8.554688 1.476562 -10.125 2.125 -11.6875 C 2.34375 -12.25 2.570312 -12.8125 2.8125 -13.375 C 2.863281 -13.5 2.914062 -13.625 2.96875 -13.75 C 3.0625 -13.957031 3.148438 -14.171875 3.234375 -14.390625 C 3.367188 -14.742188 3.226562 -14.929688 2.8125 -14.953125 C 2.570312 -14.953125 2.335938 -14.953125 2.109375 -14.953125 C 1.992188 -14.953125 1.875 -14.953125 1.75 -14.953125 C 1.625 -14.929688 1.492188 -14.914062 1.359375 -14.90625 C 1.140625 -14.882812 0.925781 -14.875 0.71875 -14.875 C 0.507812 -14.875 0.316406 -14.925781 0.140625 -15.03125 C 0.0859375 -15.050781 0.046875 -15.082031 0.015625 -15.125 C -0.015625 -15.175781 -0.03125 -15.226562 -0.03125 -15.28125 C -0.0078125 -15.3125 0.015625 -15.347656 0.046875 -15.390625 C 0.0859375 -15.441406 0.140625 -15.476562 0.203125 -15.5 C 0.378906 -15.570312 0.566406 -15.625 0.765625 -15.65625 C 1.273438 -15.675781 1.78125 -15.695312 2.28125 -15.71875 C 2.476562 -15.71875 2.65625 -15.71875 2.8125 -15.71875 C 3.132812 -15.71875 3.375 -15.726562 3.53125 -15.75 C 3.695312 -15.78125 3.828125 -15.867188 3.921875 -16.015625 C 4.023438 -16.160156 4.144531 -16.390625 4.28125 -16.703125 C 4.351562 -16.859375 4.441406 -17.035156 4.546875 -17.234375 C 4.816406 -17.816406 5.09375 -18.410156 5.375 -19.015625 C 5.488281 -19.285156 5.613281 -19.546875 5.75 -19.796875 C 5.851562 -20.054688 6.023438 -20.253906 6.265625 -20.390625 C 6.484375 -20.492188 6.675781 -20.488281 6.84375 -20.375 C 6.882812 -20.332031 6.921875 -20.273438 6.953125 -20.203125 C 6.984375 -20.128906 7 -20.066406 7 -20.015625 C 7 -19.691406 6.914062 -19.375 6.75 -19.0625 C 6.71875 -18.988281 6.679688 -18.910156 6.640625 -18.828125 C 6.535156 -18.523438 6.421875 -18.222656 6.296875 -17.921875 C 6.054688 -17.359375 5.828125 -16.785156 5.609375 -16.203125 C 5.554688 -16.097656 5.554688 -16.003906 5.609375 -15.921875 C 5.660156 -15.835938 5.738281 -15.796875 5.84375 -15.796875 C 6.4375 -15.773438 7.007812 -15.765625 7.5625 -15.765625 C 7.851562 -15.765625 8.144531 -15.765625 8.4375 -15.765625 C 9.34375 -15.753906 9.703125 -15.628906 9.515625 -15.390625 C 9.398438 -15.242188 9.269531 -15.160156 9.125 -15.140625 C 8.976562 -15.117188 8.832031 -15.125 8.6875 -15.15625 C 8.59375 -15.15625 8.5 -15.15625 8.40625 -15.15625 C 7.488281 -15.09375 6.578125 -15.050781 5.671875 -15.03125 C 5.242188 -15.03125 4.960938 -14.84375 4.828125 -14.46875 C 4.671875 -14.101562 4.523438 -13.738281 4.390625 -13.375 C 4.179688 -12.90625 3.988281 -12.441406 3.8125 -11.984375 C 3.625 -11.554688 3.441406 -11.125 3.265625 -10.6875 C 2.796875 -9.582031 2.34375 -8.472656 1.90625 -7.359375 C 1.632812 -6.628906 1.421875 -5.882812 1.265625 -5.125 C 0.910156 -3.75 1.441406 -3.222656 2.859375 -3.546875 C 4.242188 -3.878906 5.691406 -4.878906 7.203125 -6.546875 C 7.867188 -6.960938 8.046875 -6.769531 7.734375 -5.96875 Z M 7.734375 -5.96875" transform="translate(279.44 202.066)"/></g></g></g><g fill="#0821C8"><g><g><path d="M 0.3125 -2.1875 C -0.46875 -2.1875 -0.859375 -2.59375 -0.859375 -3.40625 C -0.859375 -4.40625 -0.210938 -6.164062 1.078125 -8.6875 C 1.128906 -8.800781 1.21875 -8.859375 1.34375 -8.859375 C 1.863281 -8.859375 2.125 -8.648438 2.125 -8.234375 C 2.125 -8.085938 2.078125 -7.90625 1.984375 -7.6875 C 1.953125 -7.632812 1.519531 -6.546875 0.6875 -4.421875 C 0.5625 -4.078125 0.5 -3.820312 0.5 -3.65625 C 0.5 -3.476562 0.578125 -3.390625 0.734375 -3.390625 C 1.335938 -3.390625 2.921875 -4.882812 5.484375 -7.875 C 5.804688 -8.28125 6.128906 -8.484375 6.453125 -8.484375 C 6.921875 -8.484375 7.15625 -8.3125 7.15625 -7.96875 C 7.15625 -7.832031 7.015625 -7.332031 6.734375 -6.46875 C 6.335938 -5.289062 6.140625 -4.609375 6.140625 -4.421875 C 6.140625 -4.148438 6.226562 -4.015625 6.40625 -4.015625 C 6.863281 -4.015625 8.1875 -4.820312 10.375 -6.4375 C 10.5 -6.550781 10.609375 -6.609375 10.703125 -6.609375 C 10.898438 -6.609375 11 -6.429688 11 -6.078125 C 11 -5.992188 10.972656 -5.921875 10.921875 -5.859375 C 9.753906 -4.859375 8.765625 -4.101562 7.953125 -3.59375 C 7.210938 -3.113281 6.550781 -2.875 5.96875 -2.875 L 5.796875 -2.875 C 4.953125 -3.050781 4.53125 -3.710938 4.53125 -4.859375 C 3.625 -4.054688 2.867188 -3.410156 2.265625 -2.921875 C 1.671875 -2.429688 1.019531 -2.1875 0.3125 -2.1875 Z M 0.3125 -2.1875" transform="translate(295.94 202.066)"/></g></g></g><g fill="#0821C8"><g><g><path d="M 5.9375 -7.59375 C 5.863281 -7.019531 5.59375 -6.644531 5.125 -6.46875 C 4.664062 -6.300781 4.515625 -6.53125 4.671875 -7.15625 C 4.835938 -7.78125 4.554688 -7.9375 3.828125 -7.625 C 3.109375 -7.320312 2.515625 -6.9375 2.046875 -6.46875 C 1.316406 -5.726562 0.671875 -4.925781 0.109375 -4.0625 C 0.0546875 -3.988281 0.0078125 -3.929688 -0.03125 -3.890625 C -0.1875 -3.648438 -0.347656 -3.421875 -0.515625 -3.203125 C -0.628906 -3.054688 -0.753906 -2.960938 -0.890625 -2.921875 C -1.035156 -2.890625 -1.179688 -2.882812 -1.328125 -2.90625 C -1.472656 -2.925781 -1.582031 -2.976562 -1.65625 -3.0625 C -1.726562 -3.15625 -1.738281 -3.265625 -1.6875 -3.390625 C -1.59375 -3.609375 -1.484375 -3.832031 -1.359375 -4.0625 C -0.617188 -5.445312 0.132812 -6.832031 0.90625 -8.21875 C 0.914062 -8.226562 0.921875 -8.242188 0.921875 -8.265625 C 1.035156 -8.472656 1.164062 -8.671875 1.3125 -8.859375 C 1.476562 -9.035156 1.664062 -9.109375 1.875 -9.078125 C 2.09375 -9.046875 2.238281 -8.914062 2.3125 -8.6875 C 2.40625 -8.40625 2.484375 -8.242188 2.546875 -8.203125 C 2.609375 -8.171875 2.757812 -8.195312 3 -8.28125 C 3.488281 -8.46875 3.96875 -8.597656 4.4375 -8.671875 C 4.90625 -8.742188 5.289062 -8.722656 5.59375 -8.609375 C 5.894531 -8.503906 6.007812 -8.164062 5.9375 -7.59375 Z M 5.9375 -7.59375" transform="translate(315.58 202.066)"/></g></g></g><g fill="#0821C8"><g><g><path d="M 7.046875 -4.75 C 6.566406 -4.28125 6.007812 -3.878906 5.375 -3.546875 C 4.738281 -3.210938 4.207031 -2.992188 3.78125 -2.890625 C 3.351562 -2.785156 2.914062 -2.722656 2.46875 -2.703125 C 1.738281 -2.671875 1.066406 -2.769531 0.453125 -3 C -0.535156 -3.40625 -0.878906 -4.175781 -0.578125 -5.3125 C -0.285156 -6.300781 0.296875 -7.070312 1.171875 -7.625 C 2.054688 -8.175781 2.96875 -8.441406 3.90625 -8.421875 C 3.90625 -8.421875 3.914062 -8.421875 3.9375 -8.421875 C 4.175781 -8.441406 4.398438 -8.425781 4.609375 -8.375 C 4.972656 -8.238281 5.203125 -8.019531 5.296875 -7.71875 C 5.398438 -7.425781 5.335938 -7.097656 5.109375 -6.734375 C 4.578125 -5.941406 3.859375 -5.5 2.953125 -5.40625 C 2.347656 -5.34375 1.769531 -5.367188 1.21875 -5.484375 C 1.101562 -5.503906 1.003906 -5.476562 0.921875 -5.40625 C 0.835938 -5.332031 0.789062 -5.238281 0.78125 -5.125 C 0.613281 -4.414062 0.832031 -3.960938 1.4375 -3.765625 C 2.175781 -3.515625 2.945312 -3.515625 3.75 -3.765625 C 4.664062 -4.054688 5.539062 -4.601562 6.375 -5.40625 C 7.207031 -6.207031 7.6875 -6.578125 7.8125 -6.515625 C 7.945312 -6.460938 7.988281 -6.3125 7.9375 -6.0625 C 7.820312 -5.65625 7.523438 -5.21875 7.046875 -4.75 Z M 1.78125 -6.734375 C 1.726562 -6.679688 1.691406 -6.617188 1.671875 -6.546875 C 1.648438 -6.472656 1.675781 -6.410156 1.75 -6.359375 C 2.039062 -6.191406 2.351562 -6.128906 2.6875 -6.171875 C 3.03125 -6.222656 3.316406 -6.351562 3.546875 -6.5625 C 3.785156 -6.769531 3.890625 -7.023438 3.859375 -7.328125 C 3.835938 -7.441406 3.78125 -7.507812 3.6875 -7.53125 C 3.59375 -7.5625 3.5 -7.570312 3.40625 -7.5625 C 2.800781 -7.445312 2.257812 -7.171875 1.78125 -6.734375 Z M 1.78125 -6.734375" transform="translate(331.24 202.066)"/></g></g></g><g fill="#0821C8"><g><g><path d="M 5.984375 -6.265625 C 4.679688 -5.785156 3.742188 -5.390625 3.171875 -5.078125 C 2.742188 -4.878906 2.5 -4.707031 2.4375 -4.5625 C 2.375 -4.425781 2.421875 -4.179688 2.578125 -3.828125 C 2.578125 -3.804688 2.59375 -3.78125 2.625 -3.75 C 2.800781 -3.3125 2.90625 -2.859375 2.9375 -2.390625 C 3 -1.441406 2.191406 -0.773438 0.515625 -0.390625 C -1.148438 -0.015625 -2.265625 -0.00390625 -2.828125 -0.359375 C -3.390625 -0.710938 -3.5625 -1.160156 -3.34375 -1.703125 C -3.125 -2.242188 -2.554688 -2.796875 -1.640625 -3.359375 C -0.722656 -3.921875 -0.113281 -4.328125 0.1875 -4.578125 C 0.5 -4.828125 0.59375 -5.101562 0.46875 -5.40625 C 0.425781 -5.507812 0.378906 -5.613281 0.328125 -5.71875 C 0.222656 -5.976562 0.113281 -6.242188 0 -6.515625 C -0.21875 -7.015625 -0.3125 -7.5 -0.28125 -7.96875 C -0.25 -8.445312 -0.0703125 -8.847656 0.25 -9.171875 C 0.570312 -9.503906 1.078125 -9.679688 1.765625 -9.703125 C 2.148438 -9.722656 2.492188 -9.671875 2.796875 -9.546875 C 3.109375 -9.429688 3.351562 -9.210938 3.53125 -8.890625 C 3.6875 -8.671875 3.644531 -8.46875 3.40625 -8.28125 C 3.25 -8.15625 3.078125 -8.140625 2.890625 -8.234375 C 2.773438 -8.285156 2.664062 -8.359375 2.5625 -8.453125 C 2.5625 -8.472656 2.5625 -8.484375 2.5625 -8.484375 C 2.507812 -8.515625 2.460938 -8.546875 2.421875 -8.578125 C 2.367188 -8.648438 2.316406 -8.707031 2.265625 -8.75 C 2.046875 -8.90625 1.828125 -8.953125 1.609375 -8.890625 C 1.390625 -8.835938 1.226562 -8.671875 1.125 -8.390625 C 1.050781 -8.179688 1.015625 -7.960938 1.015625 -7.734375 C 1.023438 -7.460938 1.085938 -7.203125 1.203125 -6.953125 C 1.273438 -6.796875 1.335938 -6.648438 1.390625 -6.515625 C 1.535156 -6.148438 1.648438 -5.898438 1.734375 -5.765625 C 1.828125 -5.628906 1.9375 -5.570312 2.0625 -5.59375 C 2.195312 -5.613281 3.367188 -6.03125 5.578125 -6.84375 C 6.054688 -7.007812 6.191406 -6.816406 5.984375 -6.265625 Z M 0.625 -1.546875 C 1.207031 -1.742188 1.453125 -2.128906 1.359375 -2.703125 C 1.359375 -2.742188 1.347656 -2.789062 1.328125 -2.84375 C 1.296875 -3.15625 1.226562 -3.394531 1.125 -3.5625 C 1.03125 -3.738281 0.8125 -3.734375 0.46875 -3.546875 C -0.382812 -3.054688 -1.175781 -2.488281 -1.90625 -1.84375 C -1.957031 -1.78125 -2.003906 -1.726562 -2.046875 -1.6875 C -2.046875 -1.6875 -2.050781 -1.671875 -2.0625 -1.640625 C -2.113281 -1.578125 -2.125 -1.503906 -2.09375 -1.421875 C -2.0625 -1.335938 -1.988281 -1.296875 -1.875 -1.296875 C -1.019531 -1.160156 -0.1875 -1.242188 0.625 -1.546875 Z M 0.625 -1.546875" transform="translate(347.912 202.066)"/></g></g></g></svg>